<mxfile host="65bd71144e">
    <diagram id="33VYHN6M7gb0zGQ2J3VZ" name="Page-1">
        <mxGraphModel dx="1179" dy="672" grid="1" gridSize="10" guides="1" tooltips="1" connect="1" arrows="1" fold="1" page="1" pageScale="1" pageWidth="850" pageHeight="1100" math="0" shadow="0">
            <root>
                <mxCell id="0"/>
                <mxCell id="1" parent="0"/>
                <mxCell id="25" value="Container" style="swimlane;strokeWidth=1;fontSize=16;fontColor=#000000;fillColor=none;startSize=20;" parent="1" vertex="1">
                    <mxGeometry x="40" y="60" width="1070" height="1020" as="geometry">
                        <mxRectangle x="690" y="-30" width="120" height="30" as="alternateBounds"/>
                    </mxGeometry>
                </mxCell>
                <mxCell id="2" value="" style="strokeWidth=1;shadow=0;dashed=0;align=center;html=1;shape=mxgraph.mockup.containers.browserWindow;rSize=0;strokeColor=#666666;strokeColor2=#008cff;strokeColor3=#c4c4c4;mainText=,;recursiveResize=0;fillColor=#f5f5f5;fontColor=#333333;" parent="25" vertex="1">
                    <mxGeometry width="1070" height="1020" as="geometry"/>
                </mxCell>
                <mxCell id="3" value="Page 1" style="strokeWidth=1;shadow=0;dashed=0;align=center;html=1;shape=mxgraph.mockup.containers.anchor;fontSize=17;fontColor=#666666;align=left;" parent="2" vertex="1">
                    <mxGeometry x="60" y="12" width="110" height="26" as="geometry"/>
                </mxCell>
                <mxCell id="4" value="https://www.draw.io" style="strokeWidth=1;shadow=0;dashed=0;align=center;html=1;shape=mxgraph.mockup.containers.anchor;rSize=0;fontSize=17;fontColor=#666666;align=left;" parent="2" vertex="1">
                    <mxGeometry x="130" y="60" width="250" height="26" as="geometry"/>
                </mxCell>
                <mxCell id="14" value="&lt;b&gt;Fun Spot&lt;/b&gt;" style="html=1;shadow=0;dashed=0;fillColor=#E3F3FD;strokeColor=none;fontSize=16;fontColor=#161819;align=left;spacing=15;" parent="2" vertex="1">
                    <mxGeometry y="110" width="1070" height="60" as="geometry"/>
                </mxCell>
                <mxCell id="15" value="Find Events" style="fillColor=none;strokeColor=none;fontSize=14;fontColor=#161819;align=center;" parent="14" vertex="1">
                    <mxGeometry width="80" height="40" relative="1" as="geometry">
                        <mxPoint x="730" y="10" as="offset"/>
                    </mxGeometry>
                </mxCell>
                <mxCell id="16" value="Create Events" style="fillColor=none;strokeColor=none;fontSize=14;fontColor=#71797E;align=center;" parent="14" vertex="1">
                    <mxGeometry width="100" height="40" relative="1" as="geometry">
                        <mxPoint x="818" y="10" as="offset"/>
                    </mxGeometry>
                </mxCell>
                <mxCell id="17" value="Log In" style="fillColor=none;strokeColor=none;fontSize=14;fontColor=#71797E;align=center;spacingRight=0;" parent="14" vertex="1">
                    <mxGeometry width="80" height="40" relative="1" as="geometry">
                        <mxPoint x="910" y="10" as="offset"/>
                    </mxGeometry>
                </mxCell>
                <mxCell id="18" value="Sign Up" style="fillColor=none;strokeColor=none;fontSize=14;fontColor=#71797E;align=center;" parent="14" vertex="1">
                    <mxGeometry width="80" height="40" relative="1" as="geometry">
                        <mxPoint x="980" y="10" as="offset"/>
                    </mxGeometry>
                </mxCell>
                <mxCell id="20" value="Search Events" style="html=1;shadow=0;dashed=0;shape=mxgraph.bootstrap.rrect;rSize=5;fontSize=14;fontColor=#6C767D;strokeColor=#CED4DA;fillColor=#ffffff;align=left;spacing=10;" parent="14" vertex="1">
                    <mxGeometry x="1" width="289" height="40" relative="1" as="geometry">
                        <mxPoint x="-940" y="10" as="offset"/>
                    </mxGeometry>
                </mxCell>
                <mxCell id="22" value="" style="html=1;shadow=0;dashed=0;shape=mxgraph.bootstrap.rrect;rSize=5;fontSize=14;fontColor=#6C767D;strokeColor=#CED4DA;fillColor=#ffffff;align=left;spacing=10;" parent="14" vertex="1">
                    <mxGeometry x="420" y="10" width="180" height="40" as="geometry"/>
                </mxCell>
                <mxCell id="23" value="" style="html=1;verticalLabelPosition=bottom;align=center;labelBackgroundColor=#ffffff;verticalAlign=top;strokeWidth=2;strokeColor=#0080F0;shadow=0;dashed=0;shape=mxgraph.ios7.icons.location;fillColor=none;" parent="14" vertex="1">
                    <mxGeometry x="423" y="17.5" width="21.400000000000002" height="25" as="geometry"/>
                </mxCell>
                <mxCell id="24" value="&lt;font color=&quot;#000000&quot; style=&quot;font-size: 16px;&quot;&gt;Milano&lt;/font&gt;" style="text;html=1;strokeColor=none;fillColor=none;align=center;verticalAlign=middle;whiteSpace=wrap;rounded=0;perimeterSpacing=0;strokeWidth=1;fontSize=16;" parent="14" vertex="1">
                    <mxGeometry x="444.4" y="17.5" width="59.3" height="25" as="geometry"/>
                </mxCell>
                <mxCell id="35" value="" style="childLayout=tableLayout;recursiveResize=0;shadow=0;fillColor=none;strokeColor=#C0C0C0;labelBackgroundColor=none;labelBorderColor=none;strokeWidth=1;fontSize=16;fontColor=#000000;" parent="2" vertex="1">
                    <mxGeometry y="170" width="1070" height="210" as="geometry"/>
                </mxCell>
                <mxCell id="36" value="" style="shape=tableRow;horizontal=0;startSize=0;swimlaneHead=0;swimlaneBody=0;top=0;left=0;bottom=0;right=0;dropTarget=0;collapsible=0;recursiveResize=0;expand=0;fontStyle=0;fillColor=none;labelBackgroundColor=none;labelBorderColor=none;strokeWidth=1;fontSize=16;fontColor=#000000;" parent="35" vertex="1">
                    <mxGeometry width="1070" height="70" as="geometry"/>
                </mxCell>
                <mxCell id="37" value="" style="connectable=0;recursiveResize=0;strokeColor=none;fillColor=none;align=center;whiteSpace=wrap;html=1;labelBackgroundColor=none;labelBorderColor=none;strokeWidth=1;fontSize=16;fontColor=#000000;" parent="36" vertex="1">
                    <mxGeometry width="355" height="70" as="geometry">
                        <mxRectangle width="355" height="70" as="alternateBounds"/>
                    </mxGeometry>
                </mxCell>
                <mxCell id="38" value="" style="connectable=0;recursiveResize=0;strokeColor=none;fillColor=none;align=center;whiteSpace=wrap;html=1;labelBackgroundColor=none;labelBorderColor=none;strokeWidth=1;fontSize=16;fontColor=#000000;" parent="36" vertex="1">
                    <mxGeometry x="355" width="360" height="70" as="geometry">
                        <mxRectangle width="360" height="70" as="alternateBounds"/>
                    </mxGeometry>
                </mxCell>
                <mxCell id="39" value="" style="connectable=0;recursiveResize=0;strokeColor=none;fillColor=none;align=center;whiteSpace=wrap;html=1;labelBackgroundColor=none;labelBorderColor=none;strokeWidth=1;fontSize=16;fontColor=#000000;" parent="36" vertex="1">
                    <mxGeometry x="715" width="355" height="70" as="geometry">
                        <mxRectangle width="355" height="70" as="alternateBounds"/>
                    </mxGeometry>
                </mxCell>
                <mxCell id="40" style="shape=tableRow;horizontal=0;startSize=0;swimlaneHead=0;swimlaneBody=0;top=0;left=0;bottom=0;right=0;dropTarget=0;collapsible=0;recursiveResize=0;expand=0;fontStyle=0;fillColor=none;labelBackgroundColor=none;labelBorderColor=none;strokeWidth=1;fontSize=16;fontColor=#000000;" parent="35" vertex="1">
                    <mxGeometry y="70" width="1070" height="70" as="geometry"/>
                </mxCell>
                <mxCell id="41" value="" style="connectable=0;recursiveResize=0;strokeColor=none;fillColor=none;align=center;whiteSpace=wrap;html=1;labelBackgroundColor=none;labelBorderColor=none;strokeWidth=1;fontSize=16;fontColor=#000000;" parent="40" vertex="1">
                    <mxGeometry width="355" height="70" as="geometry">
                        <mxRectangle width="355" height="70" as="alternateBounds"/>
                    </mxGeometry>
                </mxCell>
                <mxCell id="42" value="&lt;div style=&quot;font-family: Consolas, &amp;quot;Courier New&amp;quot;, monospace; font-size: 14px; line-height: 19px;&quot;&gt;&lt;div style=&quot;&quot;&gt;Welcome to Fun Spot&lt;/div&gt;&lt;/div&gt;" style="connectable=0;recursiveResize=0;strokeColor=none;fillColor=none;align=center;whiteSpace=wrap;html=1;labelBackgroundColor=none;labelBorderColor=none;strokeWidth=1;fontSize=16;fontColor=#000000;" parent="40" vertex="1">
                    <mxGeometry x="355" width="360" height="70" as="geometry">
                        <mxRectangle width="360" height="70" as="alternateBounds"/>
                    </mxGeometry>
                </mxCell>
                <mxCell id="43" value="" style="connectable=0;recursiveResize=0;strokeColor=none;fillColor=none;align=center;whiteSpace=wrap;html=1;labelBackgroundColor=none;labelBorderColor=none;strokeWidth=1;fontSize=16;fontColor=#000000;" parent="40" vertex="1">
                    <mxGeometry x="715" width="355" height="70" as="geometry">
                        <mxRectangle width="355" height="70" as="alternateBounds"/>
                    </mxGeometry>
                </mxCell>
                <mxCell id="44" style="shape=tableRow;horizontal=0;startSize=0;swimlaneHead=0;swimlaneBody=0;top=0;left=0;bottom=0;right=0;dropTarget=0;collapsible=0;recursiveResize=0;expand=0;fontStyle=0;fillColor=none;labelBackgroundColor=none;labelBorderColor=none;strokeWidth=1;fontSize=16;fontColor=#000000;" parent="35" vertex="1">
                    <mxGeometry y="140" width="1070" height="70" as="geometry"/>
                </mxCell>
                <mxCell id="45" value="" style="connectable=0;recursiveResize=0;strokeColor=none;fillColor=none;align=center;whiteSpace=wrap;html=1;labelBackgroundColor=none;labelBorderColor=none;strokeWidth=1;fontSize=16;fontColor=#000000;" parent="44" vertex="1">
                    <mxGeometry width="355" height="70" as="geometry">
                        <mxRectangle width="355" height="70" as="alternateBounds"/>
                    </mxGeometry>
                </mxCell>
                <mxCell id="46" value="" style="connectable=0;recursiveResize=0;strokeColor=none;fillColor=none;align=center;whiteSpace=wrap;html=1;labelBackgroundColor=none;labelBorderColor=none;strokeWidth=1;fontSize=16;fontColor=#000000;" parent="44" vertex="1">
                    <mxGeometry x="355" width="360" height="70" as="geometry">
                        <mxRectangle width="360" height="70" as="alternateBounds"/>
                    </mxGeometry>
                </mxCell>
                <mxCell id="47" value="" style="connectable=0;recursiveResize=0;strokeColor=none;fillColor=none;align=center;whiteSpace=wrap;html=1;labelBackgroundColor=none;labelBorderColor=none;strokeWidth=1;fontSize=16;fontColor=#000000;" parent="44" vertex="1">
                    <mxGeometry x="715" width="355" height="70" as="geometry">
                        <mxRectangle width="355" height="70" as="alternateBounds"/>
                    </mxGeometry>
                </mxCell>
                <mxCell id="57" value="" style="childLayout=tableLayout;recursiveResize=0;shadow=0;fillColor=none;strokeColor=#C0C0C0;labelBackgroundColor=none;labelBorderColor=none;strokeWidth=1;fontSize=16;fontColor=#000000;" parent="2" vertex="1">
                    <mxGeometry y="890" width="1070" height="130" as="geometry"/>
                </mxCell>
                <mxCell id="58" value="" style="shape=tableRow;horizontal=0;startSize=0;swimlaneHead=0;swimlaneBody=0;top=0;left=0;bottom=0;right=0;dropTarget=0;collapsible=0;recursiveResize=0;expand=0;fontStyle=0;fillColor=none;labelBackgroundColor=none;labelBorderColor=none;strokeWidth=1;fontSize=16;fontColor=#000000;" parent="57" vertex="1">
                    <mxGeometry width="1070" height="44" as="geometry"/>
                </mxCell>
                <mxCell id="59" value="" style="connectable=0;recursiveResize=0;strokeColor=none;fillColor=none;align=center;whiteSpace=wrap;html=1;labelBackgroundColor=none;labelBorderColor=none;strokeWidth=1;fontSize=16;fontColor=#000000;" parent="58" vertex="1">
                    <mxGeometry width="355" height="44" as="geometry">
                        <mxRectangle width="355" height="44" as="alternateBounds"/>
                    </mxGeometry>
                </mxCell>
                <mxCell id="60" value="" style="connectable=0;recursiveResize=0;strokeColor=none;fillColor=none;align=center;whiteSpace=wrap;html=1;labelBackgroundColor=none;labelBorderColor=none;strokeWidth=1;fontSize=16;fontColor=#000000;" parent="58" vertex="1">
                    <mxGeometry x="355" width="360" height="44" as="geometry">
                        <mxRectangle width="360" height="44" as="alternateBounds"/>
                    </mxGeometry>
                </mxCell>
                <mxCell id="61" value="" style="connectable=0;recursiveResize=0;strokeColor=none;fillColor=none;align=center;whiteSpace=wrap;html=1;labelBackgroundColor=none;labelBorderColor=none;strokeWidth=1;fontSize=16;fontColor=#000000;" parent="58" vertex="1">
                    <mxGeometry x="715" width="355" height="44" as="geometry">
                        <mxRectangle width="355" height="44" as="alternateBounds"/>
                    </mxGeometry>
                </mxCell>
                <mxCell id="62" style="shape=tableRow;horizontal=0;startSize=0;swimlaneHead=0;swimlaneBody=0;top=0;left=0;bottom=0;right=0;dropTarget=0;collapsible=0;recursiveResize=0;expand=0;fontStyle=0;fillColor=none;labelBackgroundColor=none;labelBorderColor=none;strokeWidth=1;fontSize=16;fontColor=#000000;" parent="57" vertex="1">
                    <mxGeometry y="44" width="1070" height="42" as="geometry"/>
                </mxCell>
                <mxCell id="63" value="" style="connectable=0;recursiveResize=0;strokeColor=none;fillColor=none;align=center;whiteSpace=wrap;html=1;labelBackgroundColor=none;labelBorderColor=none;strokeWidth=1;fontSize=16;fontColor=#000000;" parent="62" vertex="1">
                    <mxGeometry width="355" height="42" as="geometry">
                        <mxRectangle width="355" height="42" as="alternateBounds"/>
                    </mxGeometry>
                </mxCell>
                <mxCell id="64" value="&lt;font style=&quot;font-size: 24px;&quot;&gt;FOOTER&lt;/font&gt;" style="connectable=0;recursiveResize=0;strokeColor=none;fillColor=none;align=center;whiteSpace=wrap;html=1;labelBackgroundColor=none;labelBorderColor=none;strokeWidth=1;fontSize=16;fontColor=#000000;" parent="62" vertex="1">
                    <mxGeometry x="355" width="360" height="42" as="geometry">
                        <mxRectangle width="360" height="42" as="alternateBounds"/>
                    </mxGeometry>
                </mxCell>
                <mxCell id="65" value="" style="connectable=0;recursiveResize=0;strokeColor=none;fillColor=none;align=center;whiteSpace=wrap;html=1;labelBackgroundColor=none;labelBorderColor=none;strokeWidth=1;fontSize=16;fontColor=#000000;" parent="62" vertex="1">
                    <mxGeometry x="715" width="355" height="42" as="geometry">
                        <mxRectangle width="355" height="42" as="alternateBounds"/>
                    </mxGeometry>
                </mxCell>
                <mxCell id="66" style="shape=tableRow;horizontal=0;startSize=0;swimlaneHead=0;swimlaneBody=0;top=0;left=0;bottom=0;right=0;dropTarget=0;collapsible=0;recursiveResize=0;expand=0;fontStyle=0;fillColor=none;labelBackgroundColor=none;labelBorderColor=none;strokeWidth=1;fontSize=16;fontColor=#000000;" parent="57" vertex="1">
                    <mxGeometry y="86" width="1070" height="44" as="geometry"/>
                </mxCell>
                <mxCell id="67" value="" style="connectable=0;recursiveResize=0;strokeColor=none;fillColor=none;align=center;whiteSpace=wrap;html=1;labelBackgroundColor=none;labelBorderColor=none;strokeWidth=1;fontSize=16;fontColor=#000000;" parent="66" vertex="1">
                    <mxGeometry width="355" height="44" as="geometry">
                        <mxRectangle width="355" height="44" as="alternateBounds"/>
                    </mxGeometry>
                </mxCell>
                <mxCell id="68" value="" style="connectable=0;recursiveResize=0;strokeColor=none;fillColor=none;align=center;whiteSpace=wrap;html=1;labelBackgroundColor=none;labelBorderColor=none;strokeWidth=1;fontSize=16;fontColor=#000000;" parent="66" vertex="1">
                    <mxGeometry x="355" width="360" height="44" as="geometry">
                        <mxRectangle width="360" height="44" as="alternateBounds"/>
                    </mxGeometry>
                </mxCell>
                <mxCell id="69" value="" style="connectable=0;recursiveResize=0;strokeColor=none;fillColor=none;align=center;whiteSpace=wrap;html=1;labelBackgroundColor=none;labelBorderColor=none;strokeWidth=1;fontSize=16;fontColor=#000000;" parent="66" vertex="1">
                    <mxGeometry x="715" width="355" height="44" as="geometry">
                        <mxRectangle width="355" height="44" as="alternateBounds"/>
                    </mxGeometry>
                </mxCell>
                <mxCell id="70" value="" style="group" parent="2" vertex="1" connectable="0">
                    <mxGeometry x="60" y="410" width="950" height="140" as="geometry"/>
                </mxCell>
                <mxCell id="52" value="&lt;font style=&quot;font-size: 20px;&quot;&gt;Sport&lt;/font&gt;" style="strokeWidth=2;html=1;shape=mxgraph.flowchart.start_2;whiteSpace=wrap;labelBackgroundColor=none;labelBorderColor=none;fontSize=24;fontColor=#000000;fillColor=none;strokeColor=#000000;" parent="70" vertex="1">
                    <mxGeometry x="400" width="150" height="140" as="geometry"/>
                </mxCell>
                <mxCell id="53" value="&lt;font style=&quot;font-size: 20px;&quot;&gt;Games&lt;/font&gt;" style="strokeWidth=2;html=1;shape=mxgraph.flowchart.start_2;whiteSpace=wrap;labelBackgroundColor=none;labelBorderColor=none;fontSize=24;fontColor=#000000;fillColor=none;strokeColor=#000000;" parent="70" vertex="1">
                    <mxGeometry x="600" width="150" height="140" as="geometry"/>
                </mxCell>
                <mxCell id="54" value="&lt;font style=&quot;font-size: 20px;&quot;&gt;Food&amp;amp;Drink&lt;/font&gt;" style="strokeWidth=2;html=1;shape=mxgraph.flowchart.start_2;whiteSpace=wrap;labelBackgroundColor=none;labelBorderColor=none;fontSize=24;fontColor=#000000;fillColor=none;strokeColor=#000000;" parent="70" vertex="1">
                    <mxGeometry x="800" width="150" height="140" as="geometry"/>
                </mxCell>
                <mxCell id="55" value="&lt;font style=&quot;font-size: 20px;&quot;&gt;Business&lt;/font&gt;" style="strokeWidth=2;html=1;shape=mxgraph.flowchart.start_2;whiteSpace=wrap;labelBackgroundColor=none;labelBorderColor=none;fontSize=24;fontColor=#000000;fillColor=none;strokeColor=#000000;" parent="70" vertex="1">
                    <mxGeometry x="200" width="150" height="140" as="geometry"/>
                </mxCell>
                <mxCell id="56" value="&lt;font style=&quot;font-size: 20px;&quot;&gt;Travel and&amp;nbsp;&lt;br&gt;Outdoor&lt;/font&gt;" style="strokeWidth=2;html=1;shape=mxgraph.flowchart.start_2;whiteSpace=wrap;labelBackgroundColor=none;labelBorderColor=none;fontSize=24;fontColor=#000000;fillColor=none;strokeColor=#000000;" parent="70" vertex="1">
                    <mxGeometry width="150" height="140" as="geometry"/>
                </mxCell>
                <mxCell id="71" value="" style="childLayout=tableLayout;recursiveResize=0;shadow=0;fillColor=none;strokeColor=#C0C0C0;labelBackgroundColor=none;labelBorderColor=none;strokeWidth=1;fontSize=16;fontColor=#000000;" parent="2" vertex="1">
                    <mxGeometry y="580" width="1070" height="310" as="geometry"/>
                </mxCell>
                <mxCell id="72" value="" style="shape=tableRow;horizontal=0;startSize=0;swimlaneHead=0;swimlaneBody=0;top=0;left=0;bottom=0;right=0;dropTarget=0;collapsible=0;recursiveResize=0;expand=0;fontStyle=0;fillColor=none;labelBackgroundColor=none;labelBorderColor=none;strokeWidth=1;fontSize=16;fontColor=#000000;" parent="71" vertex="1">
                    <mxGeometry width="1070" height="105" as="geometry"/>
                </mxCell>
                <mxCell id="73" value="" style="connectable=0;recursiveResize=0;strokeColor=none;fillColor=none;align=center;whiteSpace=wrap;html=1;labelBackgroundColor=none;labelBorderColor=none;strokeWidth=1;fontSize=16;fontColor=#000000;" parent="72" vertex="1">
                    <mxGeometry width="355" height="105" as="geometry">
                        <mxRectangle width="355" height="105" as="alternateBounds"/>
                    </mxGeometry>
                </mxCell>
                <mxCell id="74" value="" style="connectable=0;recursiveResize=0;strokeColor=none;fillColor=none;align=center;whiteSpace=wrap;html=1;labelBackgroundColor=none;labelBorderColor=none;strokeWidth=1;fontSize=16;fontColor=#000000;" parent="72" vertex="1">
                    <mxGeometry x="355" width="360" height="105" as="geometry">
                        <mxRectangle width="360" height="105" as="alternateBounds"/>
                    </mxGeometry>
                </mxCell>
                <mxCell id="75" value="" style="connectable=0;recursiveResize=0;strokeColor=none;fillColor=none;align=center;whiteSpace=wrap;html=1;labelBackgroundColor=none;labelBorderColor=none;strokeWidth=1;fontSize=16;fontColor=#000000;" parent="72" vertex="1">
                    <mxGeometry x="715" width="355" height="105" as="geometry">
                        <mxRectangle width="355" height="105" as="alternateBounds"/>
                    </mxGeometry>
                </mxCell>
                <mxCell id="76" style="shape=tableRow;horizontal=0;startSize=0;swimlaneHead=0;swimlaneBody=0;top=0;left=0;bottom=0;right=0;dropTarget=0;collapsible=0;recursiveResize=0;expand=0;fontStyle=0;fillColor=none;labelBackgroundColor=none;labelBorderColor=none;strokeWidth=1;fontSize=16;fontColor=#000000;" parent="71" vertex="1">
                    <mxGeometry y="105" width="1070" height="100" as="geometry"/>
                </mxCell>
                <mxCell id="77" value="" style="connectable=0;recursiveResize=0;strokeColor=none;fillColor=none;align=center;whiteSpace=wrap;html=1;labelBackgroundColor=none;labelBorderColor=none;strokeWidth=1;fontSize=16;fontColor=#000000;" parent="76" vertex="1">
                    <mxGeometry width="355" height="100" as="geometry">
                        <mxRectangle width="355" height="100" as="alternateBounds"/>
                    </mxGeometry>
                </mxCell>
                <mxCell id="78" value="&lt;font style=&quot;font-size: 24px;&quot;&gt;Section for more information&lt;/font&gt;" style="connectable=0;recursiveResize=0;strokeColor=none;fillColor=none;align=center;whiteSpace=wrap;html=1;labelBackgroundColor=none;labelBorderColor=none;strokeWidth=1;fontSize=16;fontColor=#000000;" parent="76" vertex="1">
                    <mxGeometry x="355" width="360" height="100" as="geometry">
                        <mxRectangle width="360" height="100" as="alternateBounds"/>
                    </mxGeometry>
                </mxCell>
                <mxCell id="79" value="" style="connectable=0;recursiveResize=0;strokeColor=none;fillColor=none;align=center;whiteSpace=wrap;html=1;labelBackgroundColor=none;labelBorderColor=none;strokeWidth=1;fontSize=16;fontColor=#000000;" parent="76" vertex="1">
                    <mxGeometry x="715" width="355" height="100" as="geometry">
                        <mxRectangle width="355" height="100" as="alternateBounds"/>
                    </mxGeometry>
                </mxCell>
                <mxCell id="80" style="shape=tableRow;horizontal=0;startSize=0;swimlaneHead=0;swimlaneBody=0;top=0;left=0;bottom=0;right=0;dropTarget=0;collapsible=0;recursiveResize=0;expand=0;fontStyle=0;fillColor=none;labelBackgroundColor=none;labelBorderColor=none;strokeWidth=1;fontSize=16;fontColor=#000000;" parent="71" vertex="1">
                    <mxGeometry y="205" width="1070" height="105" as="geometry"/>
                </mxCell>
                <mxCell id="81" value="" style="connectable=0;recursiveResize=0;strokeColor=none;fillColor=none;align=center;whiteSpace=wrap;html=1;labelBackgroundColor=none;labelBorderColor=none;strokeWidth=1;fontSize=16;fontColor=#000000;" parent="80" vertex="1">
                    <mxGeometry width="355" height="105" as="geometry">
                        <mxRectangle width="355" height="105" as="alternateBounds"/>
                    </mxGeometry>
                </mxCell>
                <mxCell id="82" value="" style="connectable=0;recursiveResize=0;strokeColor=none;fillColor=none;align=center;whiteSpace=wrap;html=1;labelBackgroundColor=none;labelBorderColor=none;strokeWidth=1;fontSize=16;fontColor=#000000;" parent="80" vertex="1">
                    <mxGeometry x="355" width="360" height="105" as="geometry">
                        <mxRectangle width="360" height="105" as="alternateBounds"/>
                    </mxGeometry>
                </mxCell>
                <mxCell id="83" value="" style="connectable=0;recursiveResize=0;strokeColor=none;fillColor=none;align=center;whiteSpace=wrap;html=1;labelBackgroundColor=none;labelBorderColor=none;strokeWidth=1;fontSize=16;fontColor=#000000;" parent="80" vertex="1">
                    <mxGeometry x="715" width="355" height="105" as="geometry">
                        <mxRectangle width="355" height="105" as="alternateBounds"/>
                    </mxGeometry>
                </mxCell>
            </root>
        </mxGraphModel>
    </diagram>
    <diagram id="KgPNgQo9hEz8PkN8uF24" name="Page-2">
        <mxGraphModel dx="1670" dy="952" grid="1" gridSize="10" guides="1" tooltips="1" connect="1" arrows="1" fold="1" page="1" pageScale="1" pageWidth="850" pageHeight="1100" math="0" shadow="0">
            <root>
                <mxCell id="0"/>
                <mxCell id="1" parent="0"/>
                <mxCell id="M35IU-t5m9Kj4xpbyxMd-1" value="Container" style="swimlane;strokeWidth=1;fontSize=16;fontColor=#000000;fillColor=none;startSize=20;" parent="1" vertex="1">
                    <mxGeometry x="50" y="70" width="1070" height="1020" as="geometry">
                        <mxRectangle x="690" y="-30" width="120" height="30" as="alternateBounds"/>
                    </mxGeometry>
                </mxCell>
                <mxCell id="M35IU-t5m9Kj4xpbyxMd-2" value="" style="strokeWidth=1;shadow=0;dashed=0;align=center;html=1;shape=mxgraph.mockup.containers.browserWindow;rSize=0;strokeColor=#666666;strokeColor2=#008cff;strokeColor3=#c4c4c4;mainText=,;recursiveResize=0;fillColor=#f5f5f5;fontColor=#333333;" parent="M35IU-t5m9Kj4xpbyxMd-1" vertex="1">
                    <mxGeometry width="1070" height="1020" as="geometry"/>
                </mxCell>
                <mxCell id="M35IU-t5m9Kj4xpbyxMd-3" value="Gamges" style="strokeWidth=1;shadow=0;dashed=0;align=center;html=1;shape=mxgraph.mockup.containers.anchor;fontSize=17;fontColor=#666666;align=left;" parent="M35IU-t5m9Kj4xpbyxMd-2" vertex="1">
                    <mxGeometry x="60" y="12" width="110" height="26" as="geometry"/>
                </mxCell>
                <mxCell id="M35IU-t5m9Kj4xpbyxMd-4" value="www.FUNSPOT.com" style="strokeWidth=1;shadow=0;dashed=0;align=center;html=1;shape=mxgraph.mockup.containers.anchor;rSize=0;fontSize=17;fontColor=#666666;align=left;" parent="M35IU-t5m9Kj4xpbyxMd-2" vertex="1">
                    <mxGeometry x="130" y="60" width="250" height="26" as="geometry"/>
                </mxCell>
                <mxCell id="M35IU-t5m9Kj4xpbyxMd-5" value="&lt;b&gt;Fun Spot&lt;/b&gt;" style="html=1;shadow=0;dashed=0;fillColor=#E3F3FD;strokeColor=none;fontSize=16;fontColor=#161819;align=left;spacing=15;" parent="M35IU-t5m9Kj4xpbyxMd-2" vertex="1">
                    <mxGeometry y="110" width="1070" height="60" as="geometry"/>
                </mxCell>
                <mxCell id="M35IU-t5m9Kj4xpbyxMd-6" value="Find Events" style="fillColor=none;strokeColor=none;fontSize=14;fontColor=#161819;align=center;" parent="M35IU-t5m9Kj4xpbyxMd-5" vertex="1">
                    <mxGeometry width="80" height="40" relative="1" as="geometry">
                        <mxPoint x="730" y="10" as="offset"/>
                    </mxGeometry>
                </mxCell>
                <mxCell id="M35IU-t5m9Kj4xpbyxMd-7" value="Create Events" style="fillColor=none;strokeColor=none;fontSize=14;fontColor=#71797E;align=center;" parent="M35IU-t5m9Kj4xpbyxMd-5" vertex="1">
                    <mxGeometry width="100" height="40" relative="1" as="geometry">
                        <mxPoint x="818" y="10" as="offset"/>
                    </mxGeometry>
                </mxCell>
                <mxCell id="M35IU-t5m9Kj4xpbyxMd-8" value="Log In" style="fillColor=none;strokeColor=none;fontSize=14;fontColor=#71797E;align=center;spacingRight=0;" parent="M35IU-t5m9Kj4xpbyxMd-5" vertex="1">
                    <mxGeometry width="80" height="40" relative="1" as="geometry">
                        <mxPoint x="910" y="10" as="offset"/>
                    </mxGeometry>
                </mxCell>
                <mxCell id="M35IU-t5m9Kj4xpbyxMd-9" value="Sign Up" style="fillColor=none;strokeColor=none;fontSize=14;fontColor=#71797E;align=center;" parent="M35IU-t5m9Kj4xpbyxMd-5" vertex="1">
                    <mxGeometry width="80" height="40" relative="1" as="geometry">
                        <mxPoint x="980" y="10" as="offset"/>
                    </mxGeometry>
                </mxCell>
                <mxCell id="M35IU-t5m9Kj4xpbyxMd-10" value="Search Events" style="html=1;shadow=0;dashed=0;shape=mxgraph.bootstrap.rrect;rSize=5;fontSize=14;fontColor=#6C767D;strokeColor=#CED4DA;fillColor=#ffffff;align=left;spacing=10;" parent="M35IU-t5m9Kj4xpbyxMd-5" vertex="1">
                    <mxGeometry x="1" width="289" height="40" relative="1" as="geometry">
                        <mxPoint x="-940" y="10" as="offset"/>
                    </mxGeometry>
                </mxCell>
                <mxCell id="M35IU-t5m9Kj4xpbyxMd-11" value="" style="html=1;shadow=0;dashed=0;shape=mxgraph.bootstrap.rrect;rSize=5;fontSize=14;fontColor=#6C767D;strokeColor=#CED4DA;fillColor=#ffffff;align=left;spacing=10;" parent="M35IU-t5m9Kj4xpbyxMd-5" vertex="1">
                    <mxGeometry x="420" y="10" width="180" height="40" as="geometry"/>
                </mxCell>
                <mxCell id="M35IU-t5m9Kj4xpbyxMd-12" value="" style="html=1;verticalLabelPosition=bottom;align=center;labelBackgroundColor=#ffffff;verticalAlign=top;strokeWidth=2;strokeColor=#0080F0;shadow=0;dashed=0;shape=mxgraph.ios7.icons.location;fillColor=none;" parent="M35IU-t5m9Kj4xpbyxMd-5" vertex="1">
                    <mxGeometry x="423" y="17.5" width="21.400000000000002" height="25" as="geometry"/>
                </mxCell>
                <mxCell id="M35IU-t5m9Kj4xpbyxMd-13" value="&lt;font color=&quot;#000000&quot; style=&quot;font-size: 16px;&quot;&gt;Milano&lt;/font&gt;" style="text;html=1;strokeColor=none;fillColor=none;align=center;verticalAlign=middle;whiteSpace=wrap;rounded=0;perimeterSpacing=0;strokeWidth=1;fontSize=16;" parent="M35IU-t5m9Kj4xpbyxMd-5" vertex="1">
                    <mxGeometry x="444.4" y="17.5" width="59.3" height="25" as="geometry"/>
                </mxCell>
                <mxCell id="M35IU-t5m9Kj4xpbyxMd-14" value="" style="childLayout=tableLayout;recursiveResize=0;shadow=0;fillColor=none;strokeColor=#C0C0C0;labelBackgroundColor=none;labelBorderColor=none;strokeWidth=1;fontSize=16;fontColor=#000000;" parent="M35IU-t5m9Kj4xpbyxMd-2" vertex="1">
                    <mxGeometry y="170" width="1070" height="74" as="geometry"/>
                </mxCell>
                <mxCell id="M35IU-t5m9Kj4xpbyxMd-15" value="" style="shape=tableRow;horizontal=0;startSize=0;swimlaneHead=0;swimlaneBody=0;top=0;left=0;bottom=0;right=0;dropTarget=0;collapsible=0;recursiveResize=0;expand=0;fontStyle=0;fillColor=none;labelBackgroundColor=none;labelBorderColor=none;strokeWidth=1;fontSize=16;fontColor=#000000;" parent="M35IU-t5m9Kj4xpbyxMd-14" vertex="1">
                    <mxGeometry width="1070" height="20" as="geometry"/>
                </mxCell>
                <mxCell id="M35IU-t5m9Kj4xpbyxMd-16" value="" style="connectable=0;recursiveResize=0;strokeColor=none;fillColor=none;align=center;whiteSpace=wrap;html=1;labelBackgroundColor=none;labelBorderColor=none;strokeWidth=1;fontSize=16;fontColor=#000000;" parent="M35IU-t5m9Kj4xpbyxMd-15" vertex="1">
                    <mxGeometry width="355" height="20" as="geometry">
                        <mxRectangle width="355" height="20" as="alternateBounds"/>
                    </mxGeometry>
                </mxCell>
                <mxCell id="M35IU-t5m9Kj4xpbyxMd-17" value="" style="connectable=0;recursiveResize=0;strokeColor=none;fillColor=none;align=center;whiteSpace=wrap;html=1;labelBackgroundColor=none;labelBorderColor=none;strokeWidth=1;fontSize=16;fontColor=#000000;" parent="M35IU-t5m9Kj4xpbyxMd-15" vertex="1">
                    <mxGeometry x="355" width="360" height="20" as="geometry">
                        <mxRectangle width="360" height="20" as="alternateBounds"/>
                    </mxGeometry>
                </mxCell>
                <mxCell id="M35IU-t5m9Kj4xpbyxMd-18" value="" style="connectable=0;recursiveResize=0;strokeColor=none;fillColor=none;align=center;whiteSpace=wrap;html=1;labelBackgroundColor=none;labelBorderColor=none;strokeWidth=1;fontSize=16;fontColor=#000000;" parent="M35IU-t5m9Kj4xpbyxMd-15" vertex="1">
                    <mxGeometry x="715" width="355" height="20" as="geometry">
                        <mxRectangle width="355" height="20" as="alternateBounds"/>
                    </mxGeometry>
                </mxCell>
                <mxCell id="M35IU-t5m9Kj4xpbyxMd-19" style="shape=tableRow;horizontal=0;startSize=0;swimlaneHead=0;swimlaneBody=0;top=0;left=0;bottom=0;right=0;dropTarget=0;collapsible=0;recursiveResize=0;expand=0;fontStyle=0;fillColor=none;labelBackgroundColor=none;labelBorderColor=none;strokeWidth=1;fontSize=16;fontColor=#000000;" parent="M35IU-t5m9Kj4xpbyxMd-14" vertex="1">
                    <mxGeometry y="20" width="1070" height="28" as="geometry"/>
                </mxCell>
                <mxCell id="M35IU-t5m9Kj4xpbyxMd-20" value="" style="connectable=0;recursiveResize=0;strokeColor=none;fillColor=none;align=center;whiteSpace=wrap;html=1;labelBackgroundColor=none;labelBorderColor=none;strokeWidth=1;fontSize=16;fontColor=#000000;" parent="M35IU-t5m9Kj4xpbyxMd-19" vertex="1">
                    <mxGeometry width="355" height="28" as="geometry">
                        <mxRectangle width="355" height="28" as="alternateBounds"/>
                    </mxGeometry>
                </mxCell>
                <mxCell id="M35IU-t5m9Kj4xpbyxMd-21" value="&lt;div style=&quot;font-family: Consolas, &amp;quot;Courier New&amp;quot;, monospace; line-height: 19px;&quot;&gt;&lt;div style=&quot;&quot;&gt;&lt;font style=&quot;font-size: 32px;&quot;&gt;GAMES&lt;/font&gt;&lt;/div&gt;&lt;/div&gt;" style="connectable=0;recursiveResize=0;strokeColor=none;fillColor=none;align=center;whiteSpace=wrap;html=1;labelBackgroundColor=none;labelBorderColor=none;strokeWidth=1;fontSize=16;fontColor=#000000;" parent="M35IU-t5m9Kj4xpbyxMd-19" vertex="1">
                    <mxGeometry x="355" width="360" height="28" as="geometry">
                        <mxRectangle width="360" height="28" as="alternateBounds"/>
                    </mxGeometry>
                </mxCell>
                <mxCell id="M35IU-t5m9Kj4xpbyxMd-22" value="" style="connectable=0;recursiveResize=0;strokeColor=none;fillColor=none;align=center;whiteSpace=wrap;html=1;labelBackgroundColor=none;labelBorderColor=none;strokeWidth=1;fontSize=16;fontColor=#000000;" parent="M35IU-t5m9Kj4xpbyxMd-19" vertex="1">
                    <mxGeometry x="715" width="355" height="28" as="geometry">
                        <mxRectangle width="355" height="28" as="alternateBounds"/>
                    </mxGeometry>
                </mxCell>
                <mxCell id="M35IU-t5m9Kj4xpbyxMd-23" style="shape=tableRow;horizontal=0;startSize=0;swimlaneHead=0;swimlaneBody=0;top=0;left=0;bottom=0;right=0;dropTarget=0;collapsible=0;recursiveResize=0;expand=0;fontStyle=0;fillColor=none;labelBackgroundColor=none;labelBorderColor=none;strokeWidth=1;fontSize=16;fontColor=#000000;" parent="M35IU-t5m9Kj4xpbyxMd-14" vertex="1">
                    <mxGeometry y="48" width="1070" height="26" as="geometry"/>
                </mxCell>
                <mxCell id="M35IU-t5m9Kj4xpbyxMd-24" value="" style="connectable=0;recursiveResize=0;strokeColor=none;fillColor=none;align=center;whiteSpace=wrap;html=1;labelBackgroundColor=none;labelBorderColor=none;strokeWidth=1;fontSize=16;fontColor=#000000;" parent="M35IU-t5m9Kj4xpbyxMd-23" vertex="1">
                    <mxGeometry width="355" height="26" as="geometry">
                        <mxRectangle width="355" height="26" as="alternateBounds"/>
                    </mxGeometry>
                </mxCell>
                <mxCell id="M35IU-t5m9Kj4xpbyxMd-25" value="" style="connectable=0;recursiveResize=0;strokeColor=none;fillColor=none;align=center;whiteSpace=wrap;html=1;labelBackgroundColor=none;labelBorderColor=none;strokeWidth=1;fontSize=16;fontColor=#000000;" parent="M35IU-t5m9Kj4xpbyxMd-23" vertex="1">
                    <mxGeometry x="355" width="360" height="26" as="geometry">
                        <mxRectangle width="360" height="26" as="alternateBounds"/>
                    </mxGeometry>
                </mxCell>
                <mxCell id="M35IU-t5m9Kj4xpbyxMd-26" value="" style="connectable=0;recursiveResize=0;strokeColor=none;fillColor=none;align=center;whiteSpace=wrap;html=1;labelBackgroundColor=none;labelBorderColor=none;strokeWidth=1;fontSize=16;fontColor=#000000;" parent="M35IU-t5m9Kj4xpbyxMd-23" vertex="1">
                    <mxGeometry x="715" width="355" height="26" as="geometry">
                        <mxRectangle width="355" height="26" as="alternateBounds"/>
                    </mxGeometry>
                </mxCell>
                <mxCell id="M35IU-t5m9Kj4xpbyxMd-27" value="" style="childLayout=tableLayout;recursiveResize=0;shadow=0;fillColor=none;strokeColor=#C0C0C0;labelBackgroundColor=none;labelBorderColor=none;strokeWidth=1;fontSize=16;fontColor=#000000;" parent="M35IU-t5m9Kj4xpbyxMd-2" vertex="1">
                    <mxGeometry y="890" width="1070" height="130" as="geometry"/>
                </mxCell>
                <mxCell id="M35IU-t5m9Kj4xpbyxMd-28" value="" style="shape=tableRow;horizontal=0;startSize=0;swimlaneHead=0;swimlaneBody=0;top=0;left=0;bottom=0;right=0;dropTarget=0;collapsible=0;recursiveResize=0;expand=0;fontStyle=0;fillColor=none;labelBackgroundColor=none;labelBorderColor=none;strokeWidth=1;fontSize=16;fontColor=#000000;" parent="M35IU-t5m9Kj4xpbyxMd-27" vertex="1">
                    <mxGeometry width="1070" height="44" as="geometry"/>
                </mxCell>
                <mxCell id="M35IU-t5m9Kj4xpbyxMd-29" value="" style="connectable=0;recursiveResize=0;strokeColor=none;fillColor=none;align=center;whiteSpace=wrap;html=1;labelBackgroundColor=none;labelBorderColor=none;strokeWidth=1;fontSize=16;fontColor=#000000;" parent="M35IU-t5m9Kj4xpbyxMd-28" vertex="1">
                    <mxGeometry width="355" height="44" as="geometry">
                        <mxRectangle width="355" height="44" as="alternateBounds"/>
                    </mxGeometry>
                </mxCell>
                <mxCell id="M35IU-t5m9Kj4xpbyxMd-30" value="" style="connectable=0;recursiveResize=0;strokeColor=none;fillColor=none;align=center;whiteSpace=wrap;html=1;labelBackgroundColor=none;labelBorderColor=none;strokeWidth=1;fontSize=16;fontColor=#000000;" parent="M35IU-t5m9Kj4xpbyxMd-28" vertex="1">
                    <mxGeometry x="355" width="360" height="44" as="geometry">
                        <mxRectangle width="360" height="44" as="alternateBounds"/>
                    </mxGeometry>
                </mxCell>
                <mxCell id="M35IU-t5m9Kj4xpbyxMd-31" value="" style="connectable=0;recursiveResize=0;strokeColor=none;fillColor=none;align=center;whiteSpace=wrap;html=1;labelBackgroundColor=none;labelBorderColor=none;strokeWidth=1;fontSize=16;fontColor=#000000;" parent="M35IU-t5m9Kj4xpbyxMd-28" vertex="1">
                    <mxGeometry x="715" width="355" height="44" as="geometry">
                        <mxRectangle width="355" height="44" as="alternateBounds"/>
                    </mxGeometry>
                </mxCell>
                <mxCell id="M35IU-t5m9Kj4xpbyxMd-32" style="shape=tableRow;horizontal=0;startSize=0;swimlaneHead=0;swimlaneBody=0;top=0;left=0;bottom=0;right=0;dropTarget=0;collapsible=0;recursiveResize=0;expand=0;fontStyle=0;fillColor=none;labelBackgroundColor=none;labelBorderColor=none;strokeWidth=1;fontSize=16;fontColor=#000000;" parent="M35IU-t5m9Kj4xpbyxMd-27" vertex="1">
                    <mxGeometry y="44" width="1070" height="42" as="geometry"/>
                </mxCell>
                <mxCell id="M35IU-t5m9Kj4xpbyxMd-33" value="" style="connectable=0;recursiveResize=0;strokeColor=none;fillColor=none;align=center;whiteSpace=wrap;html=1;labelBackgroundColor=none;labelBorderColor=none;strokeWidth=1;fontSize=16;fontColor=#000000;" parent="M35IU-t5m9Kj4xpbyxMd-32" vertex="1">
                    <mxGeometry width="355" height="42" as="geometry">
                        <mxRectangle width="355" height="42" as="alternateBounds"/>
                    </mxGeometry>
                </mxCell>
                <mxCell id="M35IU-t5m9Kj4xpbyxMd-34" value="&lt;font style=&quot;font-size: 24px;&quot;&gt;FOOTER&lt;/font&gt;" style="connectable=0;recursiveResize=0;strokeColor=none;fillColor=none;align=center;whiteSpace=wrap;html=1;labelBackgroundColor=none;labelBorderColor=none;strokeWidth=1;fontSize=16;fontColor=#000000;" parent="M35IU-t5m9Kj4xpbyxMd-32" vertex="1">
                    <mxGeometry x="355" width="360" height="42" as="geometry">
                        <mxRectangle width="360" height="42" as="alternateBounds"/>
                    </mxGeometry>
                </mxCell>
                <mxCell id="M35IU-t5m9Kj4xpbyxMd-35" value="" style="connectable=0;recursiveResize=0;strokeColor=none;fillColor=none;align=center;whiteSpace=wrap;html=1;labelBackgroundColor=none;labelBorderColor=none;strokeWidth=1;fontSize=16;fontColor=#000000;" parent="M35IU-t5m9Kj4xpbyxMd-32" vertex="1">
                    <mxGeometry x="715" width="355" height="42" as="geometry">
                        <mxRectangle width="355" height="42" as="alternateBounds"/>
                    </mxGeometry>
                </mxCell>
                <mxCell id="M35IU-t5m9Kj4xpbyxMd-36" style="shape=tableRow;horizontal=0;startSize=0;swimlaneHead=0;swimlaneBody=0;top=0;left=0;bottom=0;right=0;dropTarget=0;collapsible=0;recursiveResize=0;expand=0;fontStyle=0;fillColor=none;labelBackgroundColor=none;labelBorderColor=none;strokeWidth=1;fontSize=16;fontColor=#000000;" parent="M35IU-t5m9Kj4xpbyxMd-27" vertex="1">
                    <mxGeometry y="86" width="1070" height="44" as="geometry"/>
                </mxCell>
                <mxCell id="M35IU-t5m9Kj4xpbyxMd-37" value="" style="connectable=0;recursiveResize=0;strokeColor=none;fillColor=none;align=center;whiteSpace=wrap;html=1;labelBackgroundColor=none;labelBorderColor=none;strokeWidth=1;fontSize=16;fontColor=#000000;" parent="M35IU-t5m9Kj4xpbyxMd-36" vertex="1">
                    <mxGeometry width="355" height="44" as="geometry">
                        <mxRectangle width="355" height="44" as="alternateBounds"/>
                    </mxGeometry>
                </mxCell>
                <mxCell id="M35IU-t5m9Kj4xpbyxMd-38" value="" style="connectable=0;recursiveResize=0;strokeColor=none;fillColor=none;align=center;whiteSpace=wrap;html=1;labelBackgroundColor=none;labelBorderColor=none;strokeWidth=1;fontSize=16;fontColor=#000000;" parent="M35IU-t5m9Kj4xpbyxMd-36" vertex="1">
                    <mxGeometry x="355" width="360" height="44" as="geometry">
                        <mxRectangle width="360" height="44" as="alternateBounds"/>
                    </mxGeometry>
                </mxCell>
                <mxCell id="M35IU-t5m9Kj4xpbyxMd-39" value="" style="connectable=0;recursiveResize=0;strokeColor=none;fillColor=none;align=center;whiteSpace=wrap;html=1;labelBackgroundColor=none;labelBorderColor=none;strokeWidth=1;fontSize=16;fontColor=#000000;" parent="M35IU-t5m9Kj4xpbyxMd-36" vertex="1">
                    <mxGeometry x="715" width="355" height="44" as="geometry">
                        <mxRectangle width="355" height="44" as="alternateBounds"/>
                    </mxGeometry>
                </mxCell>
                <mxCell id="M35IU-t5m9Kj4xpbyxMd-59" value="&lt;font style=&quot;font-size: 24px;&quot;&gt;Poker&lt;/font&gt;" style="ellipse;whiteSpace=wrap;html=1;aspect=fixed;labelBackgroundColor=none;labelBorderColor=none;strokeColor=#000000;strokeWidth=1;fontSize=32;fontColor=#000000;fillColor=none;" parent="M35IU-t5m9Kj4xpbyxMd-2" vertex="1">
                    <mxGeometry x="260" y="345" width="150" height="150" as="geometry"/>
                </mxCell>
                <mxCell id="M35IU-t5m9Kj4xpbyxMd-60" value="&lt;font style=&quot;font-size: 24px;&quot;&gt;Play Station&lt;/font&gt;" style="ellipse;whiteSpace=wrap;html=1;aspect=fixed;labelBackgroundColor=none;labelBorderColor=none;strokeColor=#000000;strokeWidth=1;fontSize=32;fontColor=#000000;fillColor=none;" parent="M35IU-t5m9Kj4xpbyxMd-2" vertex="1">
                    <mxGeometry x="660" y="345" width="150" height="150" as="geometry"/>
                </mxCell>
                <mxCell id="M35IU-t5m9Kj4xpbyxMd-61" value="&lt;font style=&quot;font-size: 24px;&quot;&gt;Mafia&lt;/font&gt;" style="ellipse;whiteSpace=wrap;html=1;aspect=fixed;labelBackgroundColor=none;labelBorderColor=none;strokeColor=#000000;strokeWidth=1;fontSize=32;fontColor=#000000;fillColor=none;" parent="M35IU-t5m9Kj4xpbyxMd-2" vertex="1">
                    <mxGeometry x="460" y="345" width="150" height="150" as="geometry"/>
                </mxCell>
                <mxCell id="M35IU-t5m9Kj4xpbyxMd-62" value="&lt;font style=&quot;font-size: 24px;&quot;&gt;Backgammon&lt;/font&gt;" style="ellipse;whiteSpace=wrap;html=1;aspect=fixed;labelBackgroundColor=none;labelBorderColor=none;strokeColor=#000000;strokeWidth=1;fontSize=32;fontColor=#000000;fillColor=none;" parent="M35IU-t5m9Kj4xpbyxMd-2" vertex="1">
                    <mxGeometry x="60" y="345" width="150" height="150" as="geometry"/>
                </mxCell>
                <mxCell id="M35IU-t5m9Kj4xpbyxMd-63" value="&lt;font style=&quot;font-size: 24px;&quot;&gt;Football&lt;/font&gt;" style="ellipse;whiteSpace=wrap;html=1;aspect=fixed;labelBackgroundColor=none;labelBorderColor=none;strokeColor=#000000;strokeWidth=1;fontSize=32;fontColor=#000000;fillColor=none;" parent="M35IU-t5m9Kj4xpbyxMd-2" vertex="1">
                    <mxGeometry x="860" y="345" width="150" height="150" as="geometry"/>
                </mxCell>
                <mxCell id="M35IU-t5m9Kj4xpbyxMd-64" value="&lt;font style=&quot;font-size: 24px;&quot;&gt;Volleyball&lt;/font&gt;" style="ellipse;whiteSpace=wrap;html=1;aspect=fixed;labelBackgroundColor=none;labelBorderColor=none;strokeColor=#000000;strokeWidth=1;fontSize=32;fontColor=#000000;fillColor=none;" parent="M35IU-t5m9Kj4xpbyxMd-2" vertex="1">
                    <mxGeometry x="460" y="525" width="150" height="150" as="geometry"/>
                </mxCell>
                <mxCell id="M35IU-t5m9Kj4xpbyxMd-65" value="&lt;font style=&quot;font-size: 24px;&quot;&gt;Monopoly&lt;/font&gt;" style="ellipse;whiteSpace=wrap;html=1;aspect=fixed;labelBackgroundColor=none;labelBorderColor=none;strokeColor=#000000;strokeWidth=1;fontSize=32;fontColor=#000000;fillColor=none;" parent="M35IU-t5m9Kj4xpbyxMd-2" vertex="1">
                    <mxGeometry x="660" y="525" width="150" height="150" as="geometry"/>
                </mxCell>
                <mxCell id="M35IU-t5m9Kj4xpbyxMd-66" value="&lt;font style=&quot;font-size: 24px;&quot;&gt;With Cards&lt;/font&gt;" style="ellipse;whiteSpace=wrap;html=1;aspect=fixed;labelBackgroundColor=none;labelBorderColor=none;strokeColor=#000000;strokeWidth=1;fontSize=32;fontColor=#000000;fillColor=none;" parent="M35IU-t5m9Kj4xpbyxMd-2" vertex="1">
                    <mxGeometry x="260" y="525" width="150" height="150" as="geometry"/>
                </mxCell>
            </root>
        </mxGraphModel>
    </diagram>
    <diagram id="W1ZBTeMILxXMVKE3v1Sp" name="Page-3">
        <mxGraphModel dx="1670" dy="952" grid="1" gridSize="10" guides="1" tooltips="1" connect="1" arrows="1" fold="1" page="1" pageScale="1" pageWidth="850" pageHeight="1100" math="0" shadow="0">
            <root>
                <mxCell id="0"/>
                <mxCell id="1" parent="0"/>
                <mxCell id="3vPJu2gTmHRLpDWkLOls-1" value="" style="strokeWidth=1;shadow=0;dashed=0;align=center;html=1;shape=mxgraph.mockup.containers.browserWindow;rSize=0;strokeColor=#666666;strokeColor2=#008cff;strokeColor3=#c4c4c4;mainText=,;recursiveResize=0;fillColor=#f5f5f5;fontColor=#333333;" vertex="1" parent="1">
                    <mxGeometry x="350" y="60" width="1070" height="1020" as="geometry"/>
                </mxCell>
                <mxCell id="3vPJu2gTmHRLpDWkLOls-2" value="Gamges" style="strokeWidth=1;shadow=0;dashed=0;align=center;html=1;shape=mxgraph.mockup.containers.anchor;fontSize=17;fontColor=#666666;align=left;" vertex="1" parent="3vPJu2gTmHRLpDWkLOls-1">
                    <mxGeometry x="60" y="12" width="110" height="26" as="geometry"/>
                </mxCell>
                <mxCell id="3vPJu2gTmHRLpDWkLOls-3" value="www.FUNSPOT.com" style="strokeWidth=1;shadow=0;dashed=0;align=center;html=1;shape=mxgraph.mockup.containers.anchor;rSize=0;fontSize=17;fontColor=#666666;align=left;" vertex="1" parent="3vPJu2gTmHRLpDWkLOls-1">
                    <mxGeometry x="130" y="60" width="250" height="26" as="geometry"/>
                </mxCell>
                <mxCell id="3vPJu2gTmHRLpDWkLOls-4" value="&lt;b&gt;Fun Spot&lt;/b&gt;" style="html=1;shadow=0;dashed=0;fillColor=#E3F3FD;strokeColor=none;fontSize=16;fontColor=#161819;align=left;spacing=15;" vertex="1" parent="3vPJu2gTmHRLpDWkLOls-1">
                    <mxGeometry y="110" width="1070" height="60" as="geometry"/>
                </mxCell>
                <mxCell id="3vPJu2gTmHRLpDWkLOls-13" value="" style="childLayout=tableLayout;recursiveResize=0;shadow=0;fillColor=none;strokeColor=#C0C0C0;labelBackgroundColor=none;labelBorderColor=none;strokeWidth=1;fontSize=16;fontColor=#000000;" vertex="1" parent="3vPJu2gTmHRLpDWkLOls-1">
                    <mxGeometry y="170" width="1070" height="76" as="geometry"/>
                </mxCell>
                <mxCell id="3vPJu2gTmHRLpDWkLOls-14" value="" style="shape=tableRow;horizontal=0;startSize=0;swimlaneHead=0;swimlaneBody=0;top=0;left=0;bottom=0;right=0;dropTarget=0;collapsible=0;recursiveResize=0;expand=0;fontStyle=0;fillColor=none;labelBackgroundColor=none;labelBorderColor=none;strokeWidth=1;fontSize=16;fontColor=#000000;" vertex="1" parent="3vPJu2gTmHRLpDWkLOls-13">
                    <mxGeometry width="1070" height="30" as="geometry"/>
                </mxCell>
                <mxCell id="3vPJu2gTmHRLpDWkLOls-15" value="" style="connectable=0;recursiveResize=0;strokeColor=none;fillColor=none;align=center;whiteSpace=wrap;html=1;labelBackgroundColor=none;labelBorderColor=none;strokeWidth=1;fontSize=16;fontColor=#000000;" vertex="1" parent="3vPJu2gTmHRLpDWkLOls-14">
                    <mxGeometry width="355" height="30" as="geometry">
                        <mxRectangle width="355" height="30" as="alternateBounds"/>
                    </mxGeometry>
                </mxCell>
                <mxCell id="3vPJu2gTmHRLpDWkLOls-16" value="" style="connectable=0;recursiveResize=0;strokeColor=none;fillColor=none;align=center;whiteSpace=wrap;html=1;labelBackgroundColor=none;labelBorderColor=none;strokeWidth=1;fontSize=16;fontColor=#000000;" vertex="1" parent="3vPJu2gTmHRLpDWkLOls-14">
                    <mxGeometry x="355" width="360" height="30" as="geometry">
                        <mxRectangle width="360" height="30" as="alternateBounds"/>
                    </mxGeometry>
                </mxCell>
                <mxCell id="3vPJu2gTmHRLpDWkLOls-17" value="" style="connectable=0;recursiveResize=0;strokeColor=none;fillColor=none;align=center;whiteSpace=wrap;html=1;labelBackgroundColor=none;labelBorderColor=none;strokeWidth=1;fontSize=16;fontColor=#000000;" vertex="1" parent="3vPJu2gTmHRLpDWkLOls-14">
                    <mxGeometry x="715" width="355" height="30" as="geometry">
                        <mxRectangle width="355" height="30" as="alternateBounds"/>
                    </mxGeometry>
                </mxCell>
                <mxCell id="3vPJu2gTmHRLpDWkLOls-18" style="shape=tableRow;horizontal=0;startSize=0;swimlaneHead=0;swimlaneBody=0;top=0;left=0;bottom=0;right=0;dropTarget=0;collapsible=0;recursiveResize=0;expand=0;fontStyle=0;fillColor=none;labelBackgroundColor=none;labelBorderColor=none;strokeWidth=1;fontSize=16;fontColor=#000000;" vertex="1" parent="3vPJu2gTmHRLpDWkLOls-13">
                    <mxGeometry y="30" width="1070" height="20" as="geometry"/>
                </mxCell>
                <mxCell id="3vPJu2gTmHRLpDWkLOls-19" value="" style="connectable=0;recursiveResize=0;strokeColor=none;fillColor=none;align=center;whiteSpace=wrap;html=1;labelBackgroundColor=none;labelBorderColor=none;strokeWidth=1;fontSize=16;fontColor=#000000;" vertex="1" parent="3vPJu2gTmHRLpDWkLOls-18">
                    <mxGeometry width="355" height="20" as="geometry">
                        <mxRectangle width="355" height="20" as="alternateBounds"/>
                    </mxGeometry>
                </mxCell>
                <mxCell id="3vPJu2gTmHRLpDWkLOls-20" value="&lt;div style=&quot;font-family: Consolas, &amp;quot;Courier New&amp;quot;, monospace; line-height: 19px;&quot;&gt;&lt;div style=&quot;&quot;&gt;&lt;font style=&quot;font-size: 32px;&quot;&gt;Create Event&lt;/font&gt;&lt;/div&gt;&lt;/div&gt;" style="connectable=0;recursiveResize=0;strokeColor=none;fillColor=none;align=center;whiteSpace=wrap;html=1;labelBackgroundColor=none;labelBorderColor=none;strokeWidth=1;fontSize=16;fontColor=#000000;" vertex="1" parent="3vPJu2gTmHRLpDWkLOls-18">
                    <mxGeometry x="355" width="360" height="20" as="geometry">
                        <mxRectangle width="360" height="20" as="alternateBounds"/>
                    </mxGeometry>
                </mxCell>
                <mxCell id="3vPJu2gTmHRLpDWkLOls-21" value="" style="connectable=0;recursiveResize=0;strokeColor=none;fillColor=none;align=center;whiteSpace=wrap;html=1;labelBackgroundColor=none;labelBorderColor=none;strokeWidth=1;fontSize=16;fontColor=#000000;" vertex="1" parent="3vPJu2gTmHRLpDWkLOls-18">
                    <mxGeometry x="715" width="355" height="20" as="geometry">
                        <mxRectangle width="355" height="20" as="alternateBounds"/>
                    </mxGeometry>
                </mxCell>
                <mxCell id="3vPJu2gTmHRLpDWkLOls-22" style="shape=tableRow;horizontal=0;startSize=0;swimlaneHead=0;swimlaneBody=0;top=0;left=0;bottom=0;right=0;dropTarget=0;collapsible=0;recursiveResize=0;expand=0;fontStyle=0;fillColor=none;labelBackgroundColor=none;labelBorderColor=none;strokeWidth=1;fontSize=16;fontColor=#000000;" vertex="1" parent="3vPJu2gTmHRLpDWkLOls-13">
                    <mxGeometry y="50" width="1070" height="26" as="geometry"/>
                </mxCell>
                <mxCell id="3vPJu2gTmHRLpDWkLOls-23" value="" style="connectable=0;recursiveResize=0;strokeColor=none;fillColor=none;align=center;whiteSpace=wrap;html=1;labelBackgroundColor=none;labelBorderColor=none;strokeWidth=1;fontSize=16;fontColor=#000000;" vertex="1" parent="3vPJu2gTmHRLpDWkLOls-22">
                    <mxGeometry width="355" height="26" as="geometry">
                        <mxRectangle width="355" height="26" as="alternateBounds"/>
                    </mxGeometry>
                </mxCell>
                <mxCell id="3vPJu2gTmHRLpDWkLOls-24" value="" style="connectable=0;recursiveResize=0;strokeColor=none;fillColor=none;align=center;whiteSpace=wrap;html=1;labelBackgroundColor=none;labelBorderColor=none;strokeWidth=1;fontSize=16;fontColor=#000000;" vertex="1" parent="3vPJu2gTmHRLpDWkLOls-22">
                    <mxGeometry x="355" width="360" height="26" as="geometry">
                        <mxRectangle width="360" height="26" as="alternateBounds"/>
                    </mxGeometry>
                </mxCell>
                <mxCell id="3vPJu2gTmHRLpDWkLOls-25" value="" style="connectable=0;recursiveResize=0;strokeColor=none;fillColor=none;align=center;whiteSpace=wrap;html=1;labelBackgroundColor=none;labelBorderColor=none;strokeWidth=1;fontSize=16;fontColor=#000000;" vertex="1" parent="3vPJu2gTmHRLpDWkLOls-22">
                    <mxGeometry x="715" width="355" height="26" as="geometry">
                        <mxRectangle width="355" height="26" as="alternateBounds"/>
                    </mxGeometry>
                </mxCell>
                <mxCell id="3vPJu2gTmHRLpDWkLOls-26" value="" style="childLayout=tableLayout;recursiveResize=0;shadow=0;fillColor=none;strokeColor=#C0C0C0;labelBackgroundColor=none;labelBorderColor=none;strokeWidth=1;fontSize=16;fontColor=#000000;" vertex="1" parent="3vPJu2gTmHRLpDWkLOls-1">
                    <mxGeometry y="890" width="1070" height="130" as="geometry"/>
                </mxCell>
                <mxCell id="3vPJu2gTmHRLpDWkLOls-27" value="" style="shape=tableRow;horizontal=0;startSize=0;swimlaneHead=0;swimlaneBody=0;top=0;left=0;bottom=0;right=0;dropTarget=0;collapsible=0;recursiveResize=0;expand=0;fontStyle=0;fillColor=none;labelBackgroundColor=none;labelBorderColor=none;strokeWidth=1;fontSize=16;fontColor=#000000;" vertex="1" parent="3vPJu2gTmHRLpDWkLOls-26">
                    <mxGeometry width="1070" height="44" as="geometry"/>
                </mxCell>
                <mxCell id="3vPJu2gTmHRLpDWkLOls-28" value="" style="connectable=0;recursiveResize=0;strokeColor=none;fillColor=none;align=center;whiteSpace=wrap;html=1;labelBackgroundColor=none;labelBorderColor=none;strokeWidth=1;fontSize=16;fontColor=#000000;" vertex="1" parent="3vPJu2gTmHRLpDWkLOls-27">
                    <mxGeometry width="355" height="44" as="geometry">
                        <mxRectangle width="355" height="44" as="alternateBounds"/>
                    </mxGeometry>
                </mxCell>
                <mxCell id="3vPJu2gTmHRLpDWkLOls-29" value="" style="connectable=0;recursiveResize=0;strokeColor=none;fillColor=none;align=center;whiteSpace=wrap;html=1;labelBackgroundColor=none;labelBorderColor=none;strokeWidth=1;fontSize=16;fontColor=#000000;" vertex="1" parent="3vPJu2gTmHRLpDWkLOls-27">
                    <mxGeometry x="355" width="360" height="44" as="geometry">
                        <mxRectangle width="360" height="44" as="alternateBounds"/>
                    </mxGeometry>
                </mxCell>
                <mxCell id="3vPJu2gTmHRLpDWkLOls-30" value="" style="connectable=0;recursiveResize=0;strokeColor=none;fillColor=none;align=center;whiteSpace=wrap;html=1;labelBackgroundColor=none;labelBorderColor=none;strokeWidth=1;fontSize=16;fontColor=#000000;" vertex="1" parent="3vPJu2gTmHRLpDWkLOls-27">
                    <mxGeometry x="715" width="355" height="44" as="geometry">
                        <mxRectangle width="355" height="44" as="alternateBounds"/>
                    </mxGeometry>
                </mxCell>
                <mxCell id="3vPJu2gTmHRLpDWkLOls-31" style="shape=tableRow;horizontal=0;startSize=0;swimlaneHead=0;swimlaneBody=0;top=0;left=0;bottom=0;right=0;dropTarget=0;collapsible=0;recursiveResize=0;expand=0;fontStyle=0;fillColor=none;labelBackgroundColor=none;labelBorderColor=none;strokeWidth=1;fontSize=16;fontColor=#000000;" vertex="1" parent="3vPJu2gTmHRLpDWkLOls-26">
                    <mxGeometry y="44" width="1070" height="42" as="geometry"/>
                </mxCell>
                <mxCell id="3vPJu2gTmHRLpDWkLOls-32" value="" style="connectable=0;recursiveResize=0;strokeColor=none;fillColor=none;align=center;whiteSpace=wrap;html=1;labelBackgroundColor=none;labelBorderColor=none;strokeWidth=1;fontSize=16;fontColor=#000000;" vertex="1" parent="3vPJu2gTmHRLpDWkLOls-31">
                    <mxGeometry width="355" height="42" as="geometry">
                        <mxRectangle width="355" height="42" as="alternateBounds"/>
                    </mxGeometry>
                </mxCell>
                <mxCell id="3vPJu2gTmHRLpDWkLOls-33" value="&lt;font style=&quot;font-size: 24px;&quot;&gt;FOOTER&lt;/font&gt;" style="connectable=0;recursiveResize=0;strokeColor=none;fillColor=none;align=center;whiteSpace=wrap;html=1;labelBackgroundColor=none;labelBorderColor=none;strokeWidth=1;fontSize=16;fontColor=#000000;" vertex="1" parent="3vPJu2gTmHRLpDWkLOls-31">
                    <mxGeometry x="355" width="360" height="42" as="geometry">
                        <mxRectangle width="360" height="42" as="alternateBounds"/>
                    </mxGeometry>
                </mxCell>
                <mxCell id="3vPJu2gTmHRLpDWkLOls-34" value="" style="connectable=0;recursiveResize=0;strokeColor=none;fillColor=none;align=center;whiteSpace=wrap;html=1;labelBackgroundColor=none;labelBorderColor=none;strokeWidth=1;fontSize=16;fontColor=#000000;" vertex="1" parent="3vPJu2gTmHRLpDWkLOls-31">
                    <mxGeometry x="715" width="355" height="42" as="geometry">
                        <mxRectangle width="355" height="42" as="alternateBounds"/>
                    </mxGeometry>
                </mxCell>
                <mxCell id="3vPJu2gTmHRLpDWkLOls-35" style="shape=tableRow;horizontal=0;startSize=0;swimlaneHead=0;swimlaneBody=0;top=0;left=0;bottom=0;right=0;dropTarget=0;collapsible=0;recursiveResize=0;expand=0;fontStyle=0;fillColor=none;labelBackgroundColor=none;labelBorderColor=none;strokeWidth=1;fontSize=16;fontColor=#000000;" vertex="1" parent="3vPJu2gTmHRLpDWkLOls-26">
                    <mxGeometry y="86" width="1070" height="44" as="geometry"/>
                </mxCell>
                <mxCell id="3vPJu2gTmHRLpDWkLOls-36" value="" style="connectable=0;recursiveResize=0;strokeColor=none;fillColor=none;align=center;whiteSpace=wrap;html=1;labelBackgroundColor=none;labelBorderColor=none;strokeWidth=1;fontSize=16;fontColor=#000000;" vertex="1" parent="3vPJu2gTmHRLpDWkLOls-35">
                    <mxGeometry width="355" height="44" as="geometry">
                        <mxRectangle width="355" height="44" as="alternateBounds"/>
                    </mxGeometry>
                </mxCell>
                <mxCell id="3vPJu2gTmHRLpDWkLOls-37" value="" style="connectable=0;recursiveResize=0;strokeColor=none;fillColor=none;align=center;whiteSpace=wrap;html=1;labelBackgroundColor=none;labelBorderColor=none;strokeWidth=1;fontSize=16;fontColor=#000000;" vertex="1" parent="3vPJu2gTmHRLpDWkLOls-35">
                    <mxGeometry x="355" width="360" height="44" as="geometry">
                        <mxRectangle width="360" height="44" as="alternateBounds"/>
                    </mxGeometry>
                </mxCell>
                <mxCell id="3vPJu2gTmHRLpDWkLOls-38" value="" style="connectable=0;recursiveResize=0;strokeColor=none;fillColor=none;align=center;whiteSpace=wrap;html=1;labelBackgroundColor=none;labelBorderColor=none;strokeWidth=1;fontSize=16;fontColor=#000000;" vertex="1" parent="3vPJu2gTmHRLpDWkLOls-35">
                    <mxGeometry x="715" width="355" height="44" as="geometry">
                        <mxRectangle width="355" height="44" as="alternateBounds"/>
                    </mxGeometry>
                </mxCell>
                <mxCell id="3vPJu2gTmHRLpDWkLOls-47" value="Date" style="strokeWidth=1;shadow=0;dashed=0;align=center;html=1;shape=mxgraph.mockup.text.textBox;fontColor=#666666;align=left;fontSize=17;spacingLeft=4;spacingTop=-3;strokeColor=#666666;mainText=;fillColor=none;" vertex="1" parent="3vPJu2gTmHRLpDWkLOls-1">
                    <mxGeometry x="340" y="400" width="180" height="30" as="geometry"/>
                </mxCell>
                <mxCell id="3vPJu2gTmHRLpDWkLOls-49" value="&lt;p style=&quot;line-height: 120%;&quot;&gt;&lt;font style=&quot;font-size: 24px;&quot; color=&quot;#000000&quot;&gt;Select the event&lt;/font&gt;&lt;/p&gt;" style="text;html=1;strokeColor=none;fillColor=none;align=left;verticalAlign=middle;whiteSpace=wrap;rounded=0;" vertex="1" parent="3vPJu2gTmHRLpDWkLOls-1">
                    <mxGeometry x="100" y="330" width="210" height="30" as="geometry"/>
                </mxCell>
                <mxCell id="3vPJu2gTmHRLpDWkLOls-50" value="&lt;font style=&quot;font-size: 20px;&quot;&gt;Dropdown button&lt;/font&gt;" style="rounded=1;fillColor=#F1F2F4;strokeColor=none;html=1;fontColor=#596780;align=left;fontSize=12;spacingLeft=10;sketch=0;" vertex="1" parent="3vPJu2gTmHRLpDWkLOls-1">
                    <mxGeometry x="330" y="327" width="190" height="33" as="geometry"/>
                </mxCell>
                <mxCell id="3vPJu2gTmHRLpDWkLOls-51" value="" style="shape=triangle;direction=south;fillColor=#596780;strokeColor=none;html=1;sketch=0;fontSize=24;fontColor=#000000;" vertex="1" parent="3vPJu2gTmHRLpDWkLOls-50">
                    <mxGeometry x="1" y="0.5" width="12" height="6" relative="1" as="geometry">
                        <mxPoint x="-20" y="-3" as="offset"/>
                    </mxGeometry>
                </mxCell>
                <mxCell id="3vPJu2gTmHRLpDWkLOls-52" value="&lt;p style=&quot;line-height: 120%;&quot;&gt;&lt;font style=&quot;font-size: 24px;&quot; color=&quot;#000000&quot;&gt;Event Date&lt;/font&gt;&lt;/p&gt;" style="text;html=1;strokeColor=none;fillColor=none;align=left;verticalAlign=middle;whiteSpace=wrap;rounded=0;" vertex="1" parent="3vPJu2gTmHRLpDWkLOls-1">
                    <mxGeometry x="100" y="400" width="210" height="30" as="geometry"/>
                </mxCell>
                <mxCell id="3vPJu2gTmHRLpDWkLOls-53" value="Time" style="strokeWidth=1;shadow=0;dashed=0;align=center;html=1;shape=mxgraph.mockup.text.textBox;fontColor=#666666;align=left;fontSize=17;spacingLeft=4;spacingTop=-3;strokeColor=#666666;mainText=;fillColor=none;" vertex="1" parent="3vPJu2gTmHRLpDWkLOls-1">
                    <mxGeometry x="340" y="470" width="180" height="30" as="geometry"/>
                </mxCell>
                <mxCell id="3vPJu2gTmHRLpDWkLOls-54" value="&lt;p style=&quot;line-height: 120%;&quot;&gt;&lt;font style=&quot;font-size: 24px;&quot; color=&quot;#000000&quot;&gt;Event Time&lt;/font&gt;&lt;/p&gt;" style="text;html=1;strokeColor=none;fillColor=none;align=left;verticalAlign=middle;whiteSpace=wrap;rounded=0;" vertex="1" parent="3vPJu2gTmHRLpDWkLOls-1">
                    <mxGeometry x="100" y="470" width="210" height="30" as="geometry"/>
                </mxCell>
                <mxCell id="3vPJu2gTmHRLpDWkLOls-55" value="Place" style="strokeWidth=1;shadow=0;dashed=0;align=center;html=1;shape=mxgraph.mockup.text.textBox;fontColor=#666666;align=left;fontSize=17;spacingLeft=4;spacingTop=-3;strokeColor=#666666;mainText=;fillColor=none;" vertex="1" parent="3vPJu2gTmHRLpDWkLOls-1">
                    <mxGeometry x="340" y="530" width="180" height="30" as="geometry"/>
                </mxCell>
                <mxCell id="3vPJu2gTmHRLpDWkLOls-56" value="&lt;p style=&quot;line-height: 120%;&quot;&gt;&lt;font style=&quot;font-size: 24px;&quot; color=&quot;#000000&quot;&gt;Event Place&lt;/font&gt;&lt;/p&gt;" style="text;html=1;strokeColor=none;fillColor=none;align=left;verticalAlign=middle;whiteSpace=wrap;rounded=0;" vertex="1" parent="3vPJu2gTmHRLpDWkLOls-1">
                    <mxGeometry x="100" y="530" width="210" height="30" as="geometry"/>
                </mxCell>
                <mxCell id="3vPJu2gTmHRLpDWkLOls-57" value="Number" style="strokeWidth=1;shadow=0;dashed=0;align=center;html=1;shape=mxgraph.mockup.text.textBox;fontColor=#666666;align=left;fontSize=17;spacingLeft=4;spacingTop=-3;strokeColor=#666666;mainText=;fillColor=none;" vertex="1" parent="3vPJu2gTmHRLpDWkLOls-1">
                    <mxGeometry x="340" y="590" width="180" height="30" as="geometry"/>
                </mxCell>
                <mxCell id="3vPJu2gTmHRLpDWkLOls-58" value="&lt;p style=&quot;line-height: 120%;&quot;&gt;&lt;font style=&quot;font-size: 24px;&quot; color=&quot;#000000&quot;&gt;Number of Players&lt;/font&gt;&lt;/p&gt;" style="text;html=1;strokeColor=none;fillColor=none;align=left;verticalAlign=middle;whiteSpace=wrap;rounded=0;" vertex="1" parent="3vPJu2gTmHRLpDWkLOls-1">
                    <mxGeometry x="100" y="590" width="210" height="30" as="geometry"/>
                </mxCell>
                <mxCell id="3vPJu2gTmHRLpDWkLOls-59" value="Map" style="html=1;strokeColor=none;fillColor=#0079D6;labelPosition=center;verticalLabelPosition=middle;verticalAlign=top;align=center;fontSize=12;outlineConnect=0;spacingTop=-6;fontColor=#FFFFFF;sketch=0;shape=mxgraph.sitemap.map;" vertex="1" parent="3vPJu2gTmHRLpDWkLOls-1">
                    <mxGeometry x="600" y="400" width="410" height="310" as="geometry"/>
                </mxCell>
                <mxCell id="3vPJu2gTmHRLpDWkLOls-61" value="Hi Mohsen" style="html=1;shadow=0;dashed=0;shape=mxgraph.bootstrap.rrect;rSize=5;strokeColor=none;strokeWidth=1;fillColor=#6C767D;fontColor=#ffffff;whiteSpace=wrap;align=left;verticalAlign=middle;fontStyle=0;fontSize=14;spacingLeft=10;" vertex="1" parent="3vPJu2gTmHRLpDWkLOls-1">
                    <mxGeometry x="890" y="120" width="155" height="40" as="geometry"/>
                </mxCell>
                <mxCell id="3vPJu2gTmHRLpDWkLOls-62" value="" style="shape=triangle;direction=south;fillColor=#ffffff;strokeColor=none;perimeter=none;fontSize=20;fontColor=#000000;" vertex="1" parent="3vPJu2gTmHRLpDWkLOls-61">
                    <mxGeometry x="1" y="0.5" width="10" height="5" relative="1" as="geometry">
                        <mxPoint x="-17" y="-2.5" as="offset"/>
                    </mxGeometry>
                </mxCell>
                <mxCell id="3vPJu2gTmHRLpDWkLOls-63" value="" style="html=1;shadow=0;dashed=0;shape=mxgraph.bootstrap.rrect;rSize=5;fillColor=#ffffff;strokeColor=#999999;fontSize=20;fontColor=#000000;" vertex="1" parent="3vPJu2gTmHRLpDWkLOls-1">
                    <mxGeometry x="890" y="160" width="155" height="110" as="geometry"/>
                </mxCell>
                <mxCell id="3vPJu2gTmHRLpDWkLOls-64" value="Profile" style="fillColor=none;strokeColor=none;align=left;spacing=20;fontSize=14;fontColor=#000000;" vertex="1" parent="3vPJu2gTmHRLpDWkLOls-63">
                    <mxGeometry width="170" height="30" relative="1" as="geometry">
                        <mxPoint y="10" as="offset"/>
                    </mxGeometry>
                </mxCell>
                <mxCell id="3vPJu2gTmHRLpDWkLOls-65" value="Events" style="fillColor=none;strokeColor=none;align=left;spacing=20;fontSize=14;fontColor=#000000;" vertex="1" parent="3vPJu2gTmHRLpDWkLOls-63">
                    <mxGeometry width="170" height="30" relative="1" as="geometry">
                        <mxPoint y="40" as="offset"/>
                    </mxGeometry>
                </mxCell>
                <mxCell id="3vPJu2gTmHRLpDWkLOls-66" value="Settings" style="fillColor=none;strokeColor=none;align=left;spacing=20;fontSize=14;fontColor=#000000;" vertex="1" parent="3vPJu2gTmHRLpDWkLOls-63">
                    <mxGeometry width="170" height="30" relative="1" as="geometry">
                        <mxPoint y="70" as="offset"/>
                    </mxGeometry>
                </mxCell>
                <mxCell id="3vPJu2gTmHRLpDWkLOls-67" value="Submit" style="rounded=1;fillColor=#0057D8;align=center;strokeColor=none;html=1;fontColor=#ffffff;fontSize=12;sketch=0;" vertex="1" parent="3vPJu2gTmHRLpDWkLOls-1">
                    <mxGeometry x="100" y="677" width="420" height="33" as="geometry"/>
                </mxCell>
                <mxCell id="3vPJu2gTmHRLpDWkLOls-72" value="" style="shape=ext;double=1;whiteSpace=wrap;html=1;aspect=fixed;fontSize=20;fontColor=#000000;fillColor=none;strokeColor=#000000;" vertex="1" parent="3vPJu2gTmHRLpDWkLOls-1">
                    <mxGeometry x="75" y="280" width="500" height="500" as="geometry"/>
                </mxCell>
            </root>
        </mxGraphModel>
    </diagram>
</mxfile>